HIERARCHY
ROOT Hips
{
  OFFSET 0.000000 95.000000 0.000000
  CHANNELS 6 Xposition Yposition Zposition Zrotation Xrotation Yrotation
  JOINT Spine
  {
    OFFSET 0.000000 10.000000 0.000000
    CHANNELS 3 Zrotation Xrotation Yrotation
    JOINT Spine1
    {
      OFFSET 0.000000 12.000000 0.000000
      CHANNELS 3 Zrotation Xrotation Yrotation
      JOINT Spine2
      {
        OFFSET 0.000000 12.000000 0.000000
        CHANNELS 3 Zrotation Xrotation Yrotation
        JOINT Neck
        {
          OFFSET 0.000000 10.000000 0.000000
          CHANNELS 3 Zrotation Xrotation Yrotation
          JOINT Head
          {
            OFFSET 0.000000 8.000000 0.000000
            CHANNELS 3 Zrotation Xrotation Yrotation
            End Site
            {
              OFFSET 0.000000 10.000000 0.000000
            }
          }
        }
        JOINT LeftShoulder
        {
          OFFSET 6.000000 8.000000 0.000000
          CHANNELS 3 Zrotation Xrotation Yrotation
          JOINT LeftArm
          {
            OFFSET 12.000000 0.000000 0.000000
            CHANNELS 3 Zrotation Xrotation Yrotation
            JOINT LeftForeArm
            {
              OFFSET 24.000000 0.000000 0.000000
              CHANNELS 3 Zrotation Xrotation Yrotation
              JOINT LeftHand
              {
                OFFSET 22.000000 0.000000 0.000000
                CHANNELS 3 Zrotation Xrotation Yrotation
                JOINT LeftHandThumb1
                {
                  OFFSET 1.800000 -1.400000 0.500000
                  CHANNELS 3 Zrotation Xrotation Yrotation
                  JOINT LeftHandThumb2
                  {
                    OFFSET 2.400000 0.000000 0.000000
                    CHANNELS 3 Zrotation Xrotation Yrotation
                    JOINT LeftHandThumb3
                    {
                      OFFSET 1.900000 0.000000 0.000000
                      CHANNELS 3 Zrotation Xrotation Yrotation
                      End Site
                      {
                        OFFSET 1.600000 0.000000 0.000000
                      }
                    }
                  }
                }
                JOINT LeftHandIndex1
                {
                  OFFSET 6.600000 1.200000 0.300000
                  CHANNELS 3 Zrotation Xrotation Yrotation
                  JOINT LeftHandIndex2
                  {
                    OFFSET 2.000000 0.000000 0.000000
                    CHANNELS 3 Zrotation Xrotation Yrotation
                    JOINT LeftHandIndex3
                    {
                      OFFSET 1.200000 0.000000 0.000000
                      CHANNELS 3 Zrotation Xrotation Yrotation
                      End Site
                      {
                        OFFSET 1.000000 0.000000 0.000000
                      }
                    }
                  }
                }
                JOINT LeftHandMiddle1
                {
                  OFFSET 7.200000 0.000000 0.300000
                  CHANNELS 3 Zrotation Xrotation Yrotation
                  JOINT LeftHandMiddle2
                  {
                    OFFSET 3.000000 0.000000 0.000000
                    CHANNELS 3 Zrotation Xrotation Yrotation
                    JOINT LeftHandMiddle3
                    {
                      OFFSET 2.000000 0.000000 0.000000
                      CHANNELS 3 Zrotation Xrotation Yrotation
                      End Site
                      {
                        OFFSET 1.600000 0.000000 0.000000
                      }
                    }
                  }
                }
                JOINT LeftHandRing1
                {
                  OFFSET 7.100000 -1.000000 0.400000
                  CHANNELS 3 Zrotation Xrotation Yrotation
                  JOINT LeftHandRing2
                  {
                    OFFSET 2.600000 0.000000 0.000000
                    CHANNELS 3 Zrotation Xrotation Yrotation
                    JOINT LeftHandRing3
                    {
                      OFFSET 1.600000 0.000000 0.000000
                      CHANNELS 3 Zrotation Xrotation Yrotation
                      End Site
                      {
                        OFFSET 1.300000 0.000000 0.000000
                      }
                    }
                  }
                }
                JOINT LeftHandPinky1
                {
                  OFFSET 6.500000 -2.000000 0.500000
                  CHANNELS 3 Zrotation Xrotation Yrotation
                  JOINT LeftHandPinky2
                  {
                    OFFSET 1.900000 0.000000 0.000000
                    CHANNELS 3 Zrotation Xrotation Yrotation
                    JOINT LeftHandPinky3
                    {
                      OFFSET 1.400000 0.000000 0.000000
                      CHANNELS 3 Zrotation Xrotation Yrotation
                      End Site
                      {
                        OFFSET 1.300000 0.000000 0.000000
                      }
                    }
                  }
                }
              }
            }
          }
        }
        JOINT RightShoulder
        {
          OFFSET -6.000000 8.000000 0.000000
          CHANNELS 3 Zrotation Xrotation Yrotation
          JOINT RightArm
          {
            OFFSET -12.000000 0.000000 0.000000
            CHANNELS 3 Zrotation Xrotation Yrotation
            JOINT RightForeArm
            {
              OFFSET -24.000000 0.000000 0.000000
              CHANNELS 3 Zrotation Xrotation Yrotation
              JOINT RightHand
              {
                OFFSET -22.000000 0.000000 0.000000
                CHANNELS 3 Zrotation Xrotation Yrotation
                JOINT RightHandThumb1
                {
                  OFFSET -1.800000 -1.400000 0.500000
                  CHANNELS 3 Zrotation Xrotation Yrotation
                  JOINT RightHandThumb2
                  {
                    OFFSET -2.400000 0.000000 0.000000
                    CHANNELS 3 Zrotation Xrotation Yrotation
                    JOINT RightHandThumb3
                    {
                      OFFSET -1.900000 0.000000 0.000000
                      CHANNELS 3 Zrotation Xrotation Yrotation
                      End Site
                      {
                        OFFSET -1.600000 0.000000 0.000000
                      }
                    }
                  }
                }
                JOINT RightHandIndex1
                {
                  OFFSET -6.600000 1.200000 0.300000
                  CHANNELS 3 Zrotation Xrotation Yrotation
                  JOINT RightHandIndex2
                  {
                    OFFSET -2.000000 0.000000 0.000000
                    CHANNELS 3 Zrotation Xrotation Yrotation
                    JOINT RightHandIndex3
                    {
                      OFFSET -1.200000 0.000000 0.000000
                      CHANNELS 3 Zrotation Xrotation Yrotation
                      End Site
                      {
                        OFFSET -1.000000 0.000000 0.000000
                      }
                    }
                  }
                }
                JOINT RightHandMiddle1
                {
                  OFFSET -7.200000 0.000000 0.300000
                  CHANNELS 3 Zrotation Xrotation Yrotation
                  JOINT RightHandMiddle2
                  {
                    OFFSET -3.000000 0.000000 0.000000
                    CHANNELS 3 Zrotation Xrotation Yrotation
                    JOINT RightHandMiddle3
                    {
                      OFFSET -2.000000 0.000000 0.000000
                      CHANNELS 3 Zrotation Xrotation Yrotation
                      End Site
                      {
                        OFFSET -1.600000 0.000000 0.000000
                      }
                    }
                  }
                }
                JOINT RightHandRing1
                {
                  OFFSET -7.100000 -1.000000 0.400000
                  CHANNELS 3 Zrotation Xrotation Yrotation
                  JOINT RightHandRing2
                  {
                    OFFSET -2.600000 0.000000 0.000000
                    CHANNELS 3 Zrotation Xrotation Yrotation
                    JOINT RightHandRing3
                    {
                      OFFSET -1.600000 0.000000 0.000000
                      CHANNELS 3 Zrotation Xrotation Yrotation
                      End Site
                      {
                        OFFSET -1.300000 0.000000 0.000000
                      }
                    }
                  }
                }
                JOINT RightHandPinky1
                {
                  OFFSET -6.500000 -2.000000 0.500000
                  CHANNELS 3 Zrotation Xrotation Yrotation
                  JOINT RightHandPinky2
                  {
                    OFFSET -1.900000 0.000000 0.000000
                    CHANNELS 3 Zrotation Xrotation Yrotation
                    JOINT RightHandPinky3
                    {
                      OFFSET -1.400000 0.000000 0.000000
                      CHANNELS 3 Zrotation Xrotation Yrotation
                      End Site
                      {
                        OFFSET -1.300000 0.000000 0.000000
                      }
                    }
                  }
                }
              }
            }
          }
        }
      }
    }
  }
  JOINT LeftUpLeg
  {
    OFFSET 10.000000 -5.000000 0.000000
    CHANNELS 3 Zrotation Xrotation Yrotation
    JOINT LeftLeg
    {
      OFFSET 0.000000 -42.000000 0.000000
      CHANNELS 3 Zrotation Xrotation Yrotation
      JOINT LeftFoot
      {
        OFFSET 0.000000 -42.000000 4.000000
        CHANNELS 3 Zrotation Xrotation Yrotation
        End Site
        {
          OFFSET 0.000000 0.000000 12.000000
        }
      }
    }
  }
  JOINT RightUpLeg
  {
    OFFSET -10.000000 -5.000000 0.000000
    CHANNELS 3 Zrotation Xrotation Yrotation
    JOINT RightLeg
    {
      OFFSET 0.000000 -42.000000 0.000000
      CHANNELS 3 Zrotation Xrotation Yrotation
      JOINT RightFoot
      {
        OFFSET 0.000000 -42.000000 4.000000
        CHANNELS 3 Zrotation Xrotation Yrotation
        End Site
        {
          OFFSET 0.000000 0.000000 12.000000
        }
      }
    }
  }
}
MOTION
Frames: 9
Frame Time: 0.033333
0.0000 95.0000 0.0000 0.0000 0.0000 0.0000 0.0000 0.0000 0.0000 0.0000 0.0000 0.0000 0.0000 0.0000 0.0000 0.0000 0.0000 0.0000 0.0000 0.0000 0.0000 0.0000 0.0000 0.0000 -75.9393 -15.3401 -19.5813 -173.0768 41.7958 -293.5396 -216.8994 -69.4694 244.7341 59.7289 -11.2526 11.0140 12.1788 0.0000 0.0000 20.4965 0.0000 0.0000 -9.9667 0.5505 -1.1127 3.0439 0.0000 0.0000 2.8647 0.0000 0.0000 2.0181 -0.0388 -2.5668 1.5588 0.0000 0.0000 0.2239 0.0000 0.0000 12.0682 -0.7186 -1.3480 2.7549 0.0000 0.0000 2.5329 0.0000 0.0000 22.8104 -1.5267 1.4931 6.3501 0.0000 0.0000 1.8524 0.0000 0.0000 0.0000 0.0000 0.0000 88.3452 -21.7313 22.3524 189.0250 36.5744 -66.6717 -126.5765 -52.6811 113.4713 -61.7421 -11.7831 -11.2370 6.4579 0.0000 0.0000 15.6635 0.0000 0.0000 9.7048 0.6808 2.5768 3.5290 0.0000 0.0000 2.9290 0.0000 0.0000 -0.8418 -0.0010 4.6420 2.0926 0.0000 0.0000 1.8391 0.0000 0.0000 -10.7033 -0.8344 5.1427 2.0979 0.0000 0.0000 1.0955 0.0000 0.0000 -20.7952 -2.1342 5.1890 5.5666 0.0000 0.0000 2.3551 0.0000 0.0000 0.0000 0.0000 0.0000 0.0000 0.0000 0.0000 0.0000 0.0000 0.0000 0.0000 0.0000 0.0000 0.0000 0.0000 0.0000 0.0000 0.0000 0.0000
0.0000 95.0000 0.0000 0.0000 0.0000 0.0000 0.0000 0.0000 0.0000 0.0000 0.0000 0.0000 0.0000 0.0000 0.0000 0.0000 0.0000 0.0000 0.0000 0.0000 0.0000 0.0000 0.0000 0.0000 -75.5976 -15.7228 -20.1873 -174.1114 43.8120 -292.2303 -220.8068 -65.7662 252.3265 58.7957 -10.6967 13.2417 14.4746 0.0000 0.0000 15.4338 0.0000 0.0000 -15.0770 0.6360 0.7707 4.1398 0.0000 0.0000 1.9871 0.0000 0.0000 -2.9125 0.1139 -0.2919 2.6686 0.0000 0.0000 0.6453 0.0000 0.0000 6.5262 -0.2342 1.5769 2.0602 0.0000 0.0000 2.9336 0.0000 0.0000 16.1515 -0.5216 4.2672 7.3437 0.0000 0.0000 2.9439 0.0000 0.0000 0.0000 0.0000 0.0000 87.9265 -21.5562 22.3311 189.3205 38.7110 -67.4656 -123.5086 -53.2230 110.5516 -61.4444 -11.8823 -9.5481 7.9056 0.0000 0.0000 15.8142 0.0000 0.0000 9.2483 0.7719 3.5955 3.3704 0.0000 0.0000 3.1994 0.0000 0.0000 -0.7964 0.0043 5.3922 3.2281 0.0000 0.0000 2.7366 0.0000 0.0000 -10.5396 -0.8591 5.6985 3.2692 0.0000 0.0000 1.5449 0.0000 0.0000 -19.9265 -2.2040 5.9310 6.7406 0.0000 0.0000 2.6137 0.0000 0.0000 0.0000 0.0000 0.0000 0.0000 0.0000 0.0000 0.0000 0.0000 0.0000 0.0000 0.0000 0.0000 0.0000 0.0000 0.0000 0.0000 0.0000 0.0000
0.0000 95.0000 0.0000 0.0000 0.0000 0.0000 0.0000 0.0000 0.0000 0.0000 0.0000 0.0000 0.0000 0.0000 0.0000 0.0000 0.0000 0.0000 0.0000 0.0000 0.0000 0.0000 0.0000 0.0000 -74.9435 -14.9766 -19.4606 -171.9525 49.3194 -288.0846 -221.2114 -67.4793 247.2508 63.5846 -12.7048 6.4717 15.2539 0.0000 0.0000 9.4908 0.0000 0.0000 -9.9680 1.1145 -7.1897 3.0368 0.0000 0.0000 3.0606 0.0000 0.0000 0.9439 0.0377 -9.3505 2.1492 0.0000 0.0000 1.6427 0.0000 0.0000 10.3279 -1.0385 -9.3520 5.0068 0.0000 0.0000 1.7125 0.0000 0.0000 19.4500 -2.4647 -8.0395 8.1950 0.0000 0.0000 1.0220 0.0000 0.0000 0.0000 0.0000 0.0000 87.4185 -20.7717 21.7070 188.9174 43.0449 -69.2204 -114.2727 -53.2738 102.0151 -61.0678 -12.0022 -7.5645 9.1803 0.0000 0.0000 12.5117 0.0000 0.0000 7.3696 1.0229 5.9723 5.4051 0.0000 0.0000 3.7784 0.0000 0.0000 0.0525 -0.0013 7.6707 6.7323 0.0000 0.0000 2.8677 0.0000 0.0000 -9.6764 -0.9694 7.7853 7.8475 0.0000 0.0000 2.7230 0.0000 0.0000 -20.2508 -2.5290 8.5722 10.5734 0.0000 0.0000 4.3199 0.0000 0.0000 0.0000 0.0000 0.0000 0.0000 0.0000 0.0000 0.0000 0.0000 0.0000 0.0000 0.0000 0.0000 0.0000 0.0000 0.0000 0.0000 0.0000 0.0000
0.0000 95.0000 0.0000 0.0000 0.0000 0.0000 0.0000 0.0000 0.0000 0.0000 0.0000 0.0000 0.0000 0.0000 0.0000 0.0000 0.0000 0.0000 0.0000 0.0000 0.0000 0.0000 0.0000 0.0000 -74.7048 -13.5455 -17.6886 -166.7376 53.7942 -282.9564 -232.0002 -69.7246 259.5882 63.7266 -12.9710 3.6934 16.2293 0.0000 0.0000 8.3468 0.0000 0.0000 -11.3845 1.1576 -8.0599 3.6568 0.0000 0.0000 2.0915 0.0000 0.0000 -1.5563 -0.0727 -10.1224 1.6158 0.0000 0.0000 1.4210 0.0000 0.0000 7.4112 -1.1749 -10.1395 4.6391 0.0000 0.0000 1.8510 0.0000 0.0000 16.0304 -2.5744 -8.7334 8.0563 0.0000 0.0000 1.5150 0.0000 0.0000 0.0000 0.0000 0.0000 87.0731 -19.6402 20.6484 187.8171 47.6740 -71.2798 -98.8413 -57.6395 87.7002 -60.6475 -12.1833 -5.0530 6.7743 0.0000 0.0000 12.2934 0.0000 0.0000 9.2660 1.4663 10.6075 8.3021 0.0000 0.0000 10.3587 0.0000 0.0000 -2.1046 0.1209 11.3470 13.4638 0.0000 0.0000 14.1072 0.0000 0.0000 -11.8859 -1.1030 12.3027 17.4918 0.0000 0.0000 12.7222 0.0000 0.0000 -22.9850 -3.0166 13.7472 17.3962 0.0000 0.0000 10.9109 0.0000 0.0000 0.0000 0.0000 0.0000 0.0000 0.0000 0.0000 0.0000 0.0000 0.0000 0.0000 0.0000 0.0000 0.0000 0.0000 0.0000 0.0000 0.0000 0.0000
0.0000 95.0000 0.0000 0.0000 0.0000 0.0000 0.0000 0.0000 0.0000 0.0000 0.0000 0.0000 0.0000 0.0000 0.0000 0.0000 0.0000 0.0000 0.0000 0.0000 0.0000 0.0000 0.0000 0.0000 -73.6390 -12.1480 -16.1798 -144.3241 67.7836 -252.4548 -312.6634 -72.0318 336.2036 75.5403 -15.0519 -11.8421 15.4701 0.0000 0.0000 9.1988 0.0000 0.0000 -5.3719 3.3126 -22.8774 1.7194 0.0000 0.0000 2.8935 0.0000 0.0000 7.6956 1.4216 -25.6742 3.9565 0.0000 0.0000 4.6980 0.0000 0.0000 15.9054 -0.9027 -26.0311 8.1198 0.0000 0.0000 4.3890 0.0000 0.0000 25.0004 -3.8000 -24.8477 9.4859 0.0000 0.0000 4.4246 0.0000 0.0000 0.0000 0.0000 0.0000 86.2059 -17.9196 19.1253 186.9523 59.2099 -76.8908 -36.5050 -60.0914 39.0247 -75.5014 -15.0234 13.1222 8.3857 0.0000 0.0000 11.3689 0.0000 0.0000 -0.5874 5.0685 27.0313 14.4946 0.0000 0.0000 65.7127 0.0000 0.0000 -15.0153 3.2399 28.9953 43.0614 0.0000 0.0000 111.8502 0.0000 0.0000 -26.4528 1.3796 30.7118 74.7218 0.0000 0.0000 70.2027 0.0000 0.0000 -39.9434 -1.2020 32.1564 61.6018 0.0000 0.0000 68.3952 0.0000 0.0000 0.0000 0.0000 0.0000 0.0000 0.0000 0.0000 0.0000 0.0000 0.0000 0.0000 0.0000 0.0000 0.0000 0.0000 0.0000 0.0000 0.0000 0.0000
0.0000 95.0000 0.0000 0.0000 0.0000 0.0000 0.0000 0.0000 0.0000 0.0000 0.0000 0.0000 0.0000 0.0000 0.0000 0.0000 0.0000 0.0000 0.0000 0.0000 0.0000 0.0000 0.0000 0.0000 -72.8757 -10.2744 -13.8856 -66.8301 67.2268 -157.6320 -349.3517 -40.7744 339.4040 97.0553 -12.8025 -30.0722 24.2153 0.0000 0.0000 5.7569 0.0000 0.0000 20.9100 7.9182 -23.4181 15.4377 0.0000 0.0000 5.5537 0.0000 0.0000 39.3723 8.6420 -28.6219 18.6436 0.0000 0.0000 11.6559 0.0000 0.0000 47.3359 6.4582 -32.0760 18.5592 0.0000 0.0000 9.5541 0.0000 0.0000 50.7447 1.3876 -33.8242 16.1287 0.0000 0.0000 6.2294 0.0000 0.0000 0.0000 0.0000 0.0000 85.8293 -15.5867 16.7485 181.2465 78.5318 -92.7126 18.9020 -30.8413 -2.6662 -102.0418 -8.3899 45.2594 4.9619 0.0000 0.0000 16.3606 0.0000 0.0000 1.2379 9.1799 51.0659 45.2314 0.0000 0.0000 24.5349 0.0000 0.0000 -17.3828 8.8326 58.3796 52.3242 0.0000 0.0000 35.9252 0.0000 0.0000 -29.1037 6.1022 62.2427 55.7347 0.0000 0.0000 29.3055 0.0000 0.0000 -45.8818 4.0564 65.5012 41.0753 0.0000 0.0000 18.0988 0.0000 0.0000 0.0000 0.0000 0.0000 0.0000 0.0000 0.0000 0.0000 0.0000 0.0000 0.0000 0.0000 0.0000 0.0000 0.0000 0.0000 0.0000 0.0000 0.0000
0.0000 95.0000 0.0000 0.0000 0.0000 0.0000 0.0000 0.0000 0.0000 0.0000 0.0000 0.0000 0.0000 0.0000 0.0000 0.0000 0.0000 0.0000 0.0000 0.0000 0.0000 0.0000 0.0000 0.0000 -72.1881 -8.3556 -11.4431 -40.7065 42.0028 -103.7967 -331.0955 -17.2067 387.1360 93.1829 -10.1567 -46.8442 21.4299 0.0000 0.0000 47.2067 0.0000 0.0000 5.6980 13.3382 -55.1365 17.7164 0.0000 0.0000 9.6165 0.0000 0.0000 21.6379 13.4213 -68.0127 18.0738 0.0000 0.0000 7.6121 0.0000 0.0000 31.9447 9.2476 -70.8997 21.4339 0.0000 0.0000 9.0125 0.0000 0.0000 37.1234 -0.3354 -77.1707 20.1376 0.0000 0.0000 8.3097 0.0000 0.0000 0.0000 0.0000 0.0000 85.5655 -12.4185 13.4100 29.9112 79.9570 -256.0149 38.5296 -11.6730 -7.2368 -101.0440 1.3941 79.6345 12.7924 0.0000 0.0000 19.8853 0.0000 0.0000 -3.0438 12.0677 55.1862 63.0629 0.0000 0.0000 23.6063 0.0000 0.0000 -19.2026 11.7553 67.4184 61.8459 0.0000 0.0000 28.5973 0.0000 0.0000 -29.4394 8.3756 75.2349 60.6489 0.0000 0.0000 24.7985 0.0000 0.0000 -43.4999 4.8037 82.9211 47.2460 0.0000 0.0000 20.3517 0.0000 0.0000 0.0000 0.0000 0.0000 0.0000 0.0000 0.0000 0.0000 0.0000 0.0000 0.0000 0.0000 0.0000 0.0000 0.0000 0.0000 0.0000 0.0000 0.0000
0.0000 95.0000 0.0000 0.0000 0.0000 0.0000 0.0000 0.0000 0.0000 0.0000 0.0000 0.0000 0.0000 0.0000 0.0000 0.0000 0.0000 0.0000 0.0000 0.0000 0.0000 0.0000 0.0000 0.0000 -73.3570 -4.9197 -6.6022 -35.1307 21.5497 -60.8573 -350.1159 4.7409 393.3555 74.7867 -14.0358 -75.2964 49.3216 0.0000 0.0000 23.4775 0.0000 0.0000 -19.8630 1.1193 -37.3164 46.7768 0.0000 0.0000 28.9515 0.0000 0.0000 -17.1228 -10.0113 -65.1533 34.7756 0.0000 0.0000 13.1083 0.0000 0.0000 -8.7654 -17.4528 -73.5727 33.3120 0.0000 0.0000 17.2802 0.0000 0.0000 -7.4694 -24.4469 -62.7572 39.3639 0.0000 0.0000 22.2794 0.0000 0.0000 0.0000 0.0000 0.0000 85.5904 -8.1334 8.7822 19.9413 57.4123 -283.3549 42.1931 12.2658 -10.9785 -81.7790 -12.3311 53.6570 41.6180 0.0000 0.0000 15.7820 0.0000 0.0000 0.1471 8.4851 45.4177 95.3569 0.0000 0.0000 22.6798 0.0000 0.0000 -15.2436 8.0630 60.3226 84.8088 0.0000 0.0000 21.0525 0.0000 0.0000 -24.3672 4.7031 73.6551 75.6212 0.0000 0.0000 20.0057 0.0000 0.0000 -37.9199 0.5692 83.9655 61.9985 0.0000 0.0000 24.1490 0.0000 0.0000 0.0000 0.0000 0.0000 0.0000 0.0000 0.0000 0.0000 0.0000 0.0000 0.0000 0.0000 0.0000 0.0000 0.0000 0.0000 0.0000 0.0000 0.0000
0.0000 95.0000 0.0000 0.0000 0.0000 0.0000 0.0000 0.0000 0.0000 0.0000 0.0000 0.0000 0.0000 0.0000 0.0000 0.0000 0.0000 0.0000 0.0000 0.0000 0.0000 0.0000 0.0000 0.0000 -74.0274 -2.3156 -3.0710 -30.2197 14.4893 -37.0824 -353.7343 61.5577 394.7960 42.0321 -9.0907 1.0687 10.4804 0.0000 0.0000 5.5391 0.0000 0.0000 -4.9825 1.8379 -11.7768 30.2846 0.0000 0.0000 25.1351 0.0000 0.0000 4.7671 0.4362 -15.2222 37.7927 0.0000 0.0000 19.1700 0.0000 0.0000 12.5982 -1.2226 -17.5770 35.2932 0.0000 0.0000 24.0001 0.0000 0.0000 21.5561 -3.3061 -15.7346 33.7108 0.0000 0.0000 27.3243 0.0000 0.0000 0.0000 0.0000 0.0000 86.0116 -5.3302 5.7142 15.2519 41.9939 -304.1769 85.6877 58.0957 47.7645 -52.5633 -11.4116 0.4994 12.3992 0.0000 0.0000 2.2240 0.0000 0.0000 -16.4694 5.9742 20.0780 55.4086 0.0000 0.0000 35.3891 0.0000 0.0000 -27.0632 5.4976 27.3370 53.2485 0.0000 0.0000 33.8556 0.0000 0.0000 -35.4108 2.3391 25.0143 61.8531 0.0000 0.0000 24.5133 0.0000 0.0000 -43.6161 -1.4287 20.3651 50.5721 0.0000 0.0000 20.2207 0.0000 0.0000 0.0000 0.0000 0.0000 0.0000 0.0000 0.0000 0.0000 0.0000 0.0000 0.0000 0.0000 0.0000 0.0000 0.0000 0.0000 0.0000 0.0000 0.0000
